<?xml version="1.0" standalone="no"?>
<!DOCTYPE svg PUBLIC "-//W3C//DTD SVG 20010904//EN"
 "http://www.w3.org/TR/2001/REC-SVG-20010904/DTD/svg10.dtd">
<svg version="1.0" xmlns="http://www.w3.org/2000/svg"
 width="547.000000pt" height="547.000000pt" viewBox="0 0 547.000000 547.000000"
 preserveAspectRatio="xMidYMid meet">
<metadata>
Created by potrace 1.11, written by Peter Selinger 2001-2013
</metadata>
<g transform="translate(0.000000,547.000000) scale(0.100000,-0.100000)"
fill="#000000" stroke="none">
<path d="M1990 4617 c-3 -3 -30 -7 -60 -11 -311 -34 -604 -154 -889 -364 -97
-72 -124 -95 -262 -232 -363 -360 -612 -807 -719 -1290 -10 -47 -21 -101 -24
-120 -2 -19 -10 -73 -17 -120 -14 -94 -18 -428 -7 -530 56 -490 299 -806 748
-970 83 -31 260 -76 330 -84 25 -3 56 -8 70 -10 101 -18 248 -25 505 -25 289
0 483 9 695 34 19 2 60 7 90 10 30 3 71 8 90 10 19 3 55 7 80 10 43 6 197 30
250 40 14 2 68 11 120 20 74 13 305 60 440 90 72 16 473 120 540 141 121 37
408 132 444 148 17 8 56 24 86 36 262 106 492 236 676 381 88 70 284 257 284
273 0 12 -126 213 -152 242 -10 11 -18 23 -18 26 0 18 -83 128 -92 122 -5 -4
-56 -43 -112 -89 -119 -95 -314 -226 -471 -316 -473 -271 -1238 -529 -1875
-634 -80 -13 -163 -24 -220 -30 -36 -4 -76 -8 -90 -10 -47 -7 -265 -18 -360
-17 -318 2 -547 35 -711 102 -166 67 -296 171 -373 297 -45 76 -89 192 -110
295 -19 91 -32 283 -20 291 5 2 47 8 94 11 47 4 99 9 115 11 17 2 66 7 109 11
43 3 86 7 95 9 9 1 52 6 95 10 43 4 86 8 95 10 9 1 43 6 76 9 33 4 74 9 90 11
17 3 46 7 65 9 34 5 219 31 290 42 19 3 69 12 110 20 41 8 86 17 100 20 14 2
48 9 75 15 28 6 61 13 75 15 78 15 356 92 485 135 456 152 686 350 741 639 10
55 12 238 2 289 -5 25 -11 58 -13 74 -3 15 -19 64 -35 108 -102 279 -329 522
-625 669 -158 78 -325 130 -505 155 -47 7 -395 17 -400 12z m435 -350 c92 -24
117 -33 173 -60 83 -40 161 -118 201 -198 65 -134 75 -326 25 -477 -79 -234
-286 -410 -666 -566 -200 -82 -526 -175 -748 -212 -14 -3 -59 -11 -100 -19
-41 -8 -93 -17 -115 -20 -23 -3 -50 -7 -60 -9 -11 -2 -42 -7 -70 -10 -57 -8
-99 -14 -149 -21 -32 -4 -34 -3 -30 18 2 12 9 49 14 82 18 98 77 308 116 406
111 286 266 528 462 725 114 115 131 130 219 190 120 82 253 141 383 169 53
12 303 13 345 2z"/>
</g>
</svg>
