<?xml version="1.0" standalone="no"?>
<!DOCTYPE svg PUBLIC "-//W3C//DTD SVG 20010904//EN"
 "http://www.w3.org/TR/2001/REC-SVG-20010904/DTD/svg10.dtd">
<svg version="1.0" xmlns="http://www.w3.org/2000/svg"
 width="563.000000pt" height="563.000000pt" viewBox="0 0 563.000000 563.000000"
 preserveAspectRatio="xMidYMid meet">
<metadata>
Created by potrace 1.11, written by Peter Selinger 2001-2013
</metadata>
<g transform="translate(0.000000,563.000000) scale(0.100000,-0.100000)"
fill="#000000" stroke="none">
<path d="M577 4540 c-66 -57 -252 -293 -276 -350 -51 -117 -59 -136 -71 -170
-7 -21 -29 -47 -51 -63 -31 -22 -39 -35 -40 -60 -3 -86 -13 -132 -64 -286 -30
-91 -59 -187 -64 -213 -12 -66 -4 -268 14 -338 2 -8 6 -37 10 -65 8 -69 33
-167 62 -245 28 -75 120 -252 164 -317 143 -207 414 -298 724 -242 128 23 129
23 268 60 130 36 142 48 86 91 -36 27 -84 73 -119 114 -109 128 -143 165 -196
218 -61 60 -62 63 -88 165 -14 57 -26 111 -26 119 0 8 13 36 29 61 24 38 30
62 36 131 9 105 8 102 35 172 20 55 20 59 4 120 -14 55 -23 96 -26 117 -2 20
4 31 22 41 16 9 30 5 74 -19 29 -17 84 -38 122 -47 38 -9 100 -32 139 -52 58
-30 82 -36 145 -38 90 -4 233 -13 275 -18 148 -17 191 -21 265 -20 47 0 119 3
160 8 109 11 189 11 200 0 16 -16 20 -50 10 -86 -5 -18 -12 -46 -15 -63 -3
-16 -11 -52 -18 -80 -12 -43 -14 -75 -8 -121 0 -6 19 -23 41 -38 48 -32 51
-56 11 -92 l-29 -25 20 -77 c18 -71 19 -117 3 -192 -2 -8 -6 -33 -10 -55 -3
-22 -8 -45 -10 -52 -2 -7 7 -51 21 -99 25 -87 27 -154 8 -299 -2 -16 -6 -91
-9 -165 -9 -222 -14 -265 -35 -315 -21 -49 -21 -85 -1 -123 6 -11 13 -41 16
-67 4 -40 11 -53 44 -82 22 -19 66 -73 98 -120 111 -165 188 -206 377 -199
115 4 195 21 337 72 140 50 232 105 311 186 63 64 69 90 35 148 -15 25 -43 79
-63 121 -30 64 -41 78 -74 93 l-38 16 23 73 c23 72 25 133 9 217 -14 72 -15
88 -18 240 -2 85 -7 225 -10 310 -4 115 -1 174 10 230 21 110 23 121 30 170 3
25 7 52 10 61 2 9 7 108 9 220 3 111 6 204 8 205 1 1 27 5 57 8 30 4 105 13
165 21 108 15 156 20 245 31 25 2 70 12 100 21 30 9 60 17 65 18 6 2 49 15 98
29 63 20 100 26 135 22 27 -3 72 2 107 10 55 15 60 14 72 -2 29 -40 6 -109
-70 -209 -4 -5 -28 -41 -54 -80 l-46 -70 17 -60 c9 -33 27 -113 41 -178 30
-140 43 -175 81 -211 29 -26 43 -30 139 -41 48 -6 84 -31 85 -60 1 -26 25 -38
138 -70 114 -32 125 -33 166 -21 51 15 148 73 189 111 41 39 61 86 122 287 31
100 67 215 82 253 27 72 35 87 94 188 48 83 51 87 84 136 28 42 30 50 30 145
0 90 -3 107 -27 151 -28 54 -89 128 -152 185 -92 82 -158 152 -245 259 -134
163 -214 228 -310 251 -70 17 -110 -3 -156 -74 -23 -37 -47 -61 -69 -70 -18
-8 -44 -26 -58 -41 -14 -14 -39 -29 -57 -31 -18 -3 -87 -30 -153 -59 -134 -60
-142 -62 -291 -80 -23 -3 -51 -7 -62 -9 -43 -8 -130 -21 -210 -31 -34 -4 -94
-13 -145 -21 -19 -3 -60 -17 -90 -32 -51 -24 -67 -26 -205 -28 -82 -1 -163 -5
-180 -7 -122 -22 -186 -25 -285 -14 -30 4 -90 9 -133 12 -43 4 -86 8 -95 10
-10 1 -55 6 -102 9 -47 4 -101 9 -120 11 -19 2 -71 7 -114 10 -43 4 -86 8 -95
10 -9 1 -59 6 -111 9 -52 4 -104 9 -115 11 -11 2 -39 4 -61 4 -35 1 -43 5 -48
25 -5 20 -21 29 -98 54 -51 17 -119 35 -151 41 -32 6 -113 34 -180 62 l-122
51 -52 -16 c-40 -13 -61 -15 -88 -7 -34 9 -38 7 -123 -64 -63 -52 -98 -75
-125 -79 l-37 -6 1 79 c1 92 -8 114 -59 140 -21 11 -43 31 -50 46 -9 19 -35
37 -89 62 -110 51 -141 53 -186 13z"/>
</g>
</svg>
